<svg width="100" height="100" viewBox="0 0 100 100" fill="none" xmlns="http://www.w3.org/2000/svg">
<rect width="100" height="100" rx="50" fill="#66CC33"/>
<path d="M29.5886 65.602C26.9799 65.602 24.7009 65.215 22.7516 64.441C20.8022 63.667 19.2686 62.5777 18.1506 61.173C17.0612 59.7397 16.5166 58.0627 16.5166 56.142C16.5166 54.25 17.0612 52.6447 18.1506 51.326C19.2686 49.9787 20.8022 48.961 22.7516 48.273C24.7296 47.5563 27.0086 47.198 29.5886 47.198C32.1686 47.198 34.4332 47.5563 36.3826 48.273C38.3606 48.961 39.8942 49.9787 40.9836 51.326C42.1016 52.6447 42.6606 54.25 42.6606 56.142C42.6606 58.0627 42.1159 59.7397 41.0266 61.173C39.9372 62.5777 38.4036 63.667 36.4256 64.441C34.4762 65.215 32.1972 65.602 29.5886 65.602ZM29.5886 59.625C30.9646 59.625 32.0539 59.2953 32.8566 58.636C33.6879 57.9767 34.1036 57.0593 34.1036 55.884C34.1036 54.7373 33.6879 53.8343 32.8566 53.175C32.0539 52.487 30.9646 52.143 29.5886 52.143C28.2126 52.143 27.1089 52.487 26.2776 53.175C25.4749 53.8343 25.0736 54.7373 25.0736 55.884C25.0736 57.0593 25.4749 57.9767 26.2776 58.636C27.1089 59.2953 28.2126 59.625 29.5886 59.625ZM29.5886 51.412C27.2379 51.412 25.1596 51.0823 23.3536 50.423C21.5762 49.7637 20.1716 48.8177 19.1396 47.585C18.1076 46.3237 17.5916 44.8187 17.5916 43.07C17.5916 41.264 18.0932 39.716 19.0966 38.426C20.1286 37.136 21.5476 36.1327 23.3536 35.416C25.1596 34.6707 27.2379 34.298 29.5886 34.298C31.9679 34.298 34.0462 34.6707 35.8236 35.416C37.6296 36.1327 39.0342 37.136 40.0376 38.426C41.0696 39.716 41.5856 41.264 41.5856 43.07C41.5856 44.8187 41.0696 46.3237 40.0376 47.585C39.0342 48.8177 37.6296 49.7637 35.8236 50.423C34.0176 51.0823 31.9392 51.412 29.5886 51.412ZM29.5886 46.596C30.6779 46.596 31.5522 46.3237 32.2116 45.779C32.8709 45.2057 33.2006 44.4317 33.2006 43.457C33.2006 42.425 32.8566 41.6367 32.1686 41.092C31.5092 40.5473 30.6492 40.275 29.5886 40.275C28.5279 40.275 27.6679 40.5473 27.0086 41.092C26.3492 41.6367 26.0196 42.425 26.0196 43.457C26.0196 44.4317 26.3492 45.2057 27.0086 45.779C27.6679 46.3237 28.5279 46.596 29.5886 46.596ZM50.4741 65.387C49.0981 65.387 47.9371 64.9283 46.9911 64.011C46.0451 63.0937 45.5721 61.9327 45.5721 60.528C45.5721 59.066 46.0451 57.905 46.9911 57.045C47.9371 56.1563 49.0981 55.712 50.4741 55.712C51.8501 55.712 53.0111 56.1563 53.9571 57.045C54.9031 57.905 55.3761 59.066 55.3761 60.528C55.3761 61.9327 54.9031 63.0937 53.9571 64.011C53.0111 64.9283 51.8501 65.387 50.4741 65.387ZM71.3708 65.602C68.7621 65.602 66.4831 65.215 64.5338 64.441C62.5845 63.667 61.0508 62.5777 59.9328 61.173C58.8435 59.7397 58.2988 58.0627 58.2988 56.142C58.2988 54.25 58.8435 52.6447 59.9328 51.326C61.0508 49.9787 62.5845 48.961 64.5338 48.273C66.5118 47.5563 68.7908 47.198 71.3708 47.198C73.9508 47.198 76.2155 47.5563 78.1648 48.273C80.1428 48.961 81.6765 49.9787 82.7658 51.326C83.8838 52.6447 84.4428 54.25 84.4428 56.142C84.4428 58.0627 83.8981 59.7397 82.8088 61.173C81.7195 62.5777 80.1858 63.667 78.2078 64.441C76.2585 65.215 73.9795 65.602 71.3708 65.602ZM71.3708 59.625C72.7468 59.625 73.8361 59.2953 74.6388 58.636C75.4701 57.9767 75.8858 57.0593 75.8858 55.884C75.8858 54.7373 75.4701 53.8343 74.6388 53.175C73.8361 52.487 72.7468 52.143 71.3708 52.143C69.9948 52.143 68.8911 52.487 68.0598 53.175C67.2571 53.8343 66.8558 54.7373 66.8558 55.884C66.8558 57.0593 67.2571 57.9767 68.0598 58.636C68.8911 59.2953 69.9948 59.625 71.3708 59.625ZM71.3708 51.412C69.0201 51.412 66.9418 51.0823 65.1358 50.423C63.3585 49.7637 61.9538 48.8177 60.9218 47.585C59.8898 46.3237 59.3738 44.8187 59.3738 43.07C59.3738 41.264 59.8755 39.716 60.8788 38.426C61.9108 37.136 63.3298 36.1327 65.1358 35.416C66.9418 34.6707 69.0201 34.298 71.3708 34.298C73.7501 34.298 75.8285 34.6707 77.6058 35.416C79.4118 36.1327 80.8165 37.136 81.8198 38.426C82.8518 39.716 83.3678 41.264 83.3678 43.07C83.3678 44.8187 82.8518 46.3237 81.8198 47.585C80.8165 48.8177 79.4118 49.7637 77.6058 50.423C75.7998 51.0823 73.7215 51.412 71.3708 51.412ZM71.3708 46.596C72.4601 46.596 73.3345 46.3237 73.9938 45.779C74.6531 45.2057 74.9828 44.4317 74.9828 43.457C74.9828 42.425 74.6388 41.6367 73.9508 41.092C73.2915 40.5473 72.4315 40.275 71.3708 40.275C70.3101 40.275 69.4501 40.5473 68.7908 41.092C68.1315 41.6367 67.8018 42.425 67.8018 43.457C67.8018 44.4317 68.1315 45.2057 68.7908 45.779C69.4501 46.3237 70.3101 46.596 71.3708 46.596Z" fill="white"/>
</svg>
