<svg width="42" height="73" viewBox="0 0 42 73" fill="none" xmlns="http://www.w3.org/2000/svg">
<g clip-path="url(#clip0_2_53)">
<path d="M20.8 67.3C20.5 67 20.5 66.7 20.4 66.3C20.4 65.8 20.4 65.2 20.3 64.7C20.3 64.1 20.1 63.7 19.5 63.4C18.8 63.1 18.7 62.4 18.7 61.7C18.7 61.1 18.5 61.1 18 61.3C16.1 62.1 14.4 63.3 12.5 64.2C11.6 64.6 10.6 64.8 9.70003 64.2C9.50003 64.1 9.30003 64 9.30003 63.8C9.10003 62.4 8.20003 61.3 7.50003 60.2C7.40003 60.1 7.30003 59.9 7.20003 59.8C6.90003 59.3 6.50003 58.7 6.80003 58.4C7.10003 58 7.70003 58.5 8.20003 58.6C8.60003 58.7 8.90003 58.7 9.20003 58.6C11.1 58.3 12.9 57.5 14.8 56.8C15.9 56.4 16.8 55.3 17.8 54.6C18 54.5 18.1 54.3 18.1 54C18.1 52.9 18.4 51.8 18.5 50.7C18.6 49.8 18.4 49 18.2 48.2C17.8 46.7 17.7 45.1 17.9 43.6C18.1 41.4 18 39.3 17.9 37.1C17.9 36.2 17.8 35.3 17.8 34.4C17.8 33.9 17.8 33.4 17.3 33C17.1 32.8 17.1 32.6 17.1 32.3C17.3 30.4 16.7 28.5 16.3 26.7C15.9 24.7 15.9 24.7 13.9 24.8C11.6 25 9.20003 25.3 6.90003 25.4C6.60003 25.4 6.30003 25.5 6.10003 25.6C5.00003 26.2 3.90003 25.8 2.80003 25.4C2.40003 25.2 2.00003 25 1.80003 24.5C1.50003 23.9 0.900027 23.7 0.400027 23.4C0.200027 23.3 -0.0999734 23.3 2.65557e-05 22.9C0.100027 22.6 0.400027 22.5 0.600027 22.5C1.80003 22.8 3.20003 22.1 4.40003 23C4.90003 23.4 5.70003 23.4 6.30003 23.2C8.60003 22.6 11 22.5 13.3 22C13.7 21.9 14.2 21.8 14.6 21.6C15.1 21.4 15.1 21 15.1 20.6C15.1 20.2 14.7 20.3 14.5 20.2C12.9 19.9 11.4 20.2 9.80003 20.3C9.00003 20.3 8.30003 20.6 7.60003 20.8C6.60003 21.1 6.20003 20.7 6.50003 19.7C6.60003 19.3 6.40003 18.8 6.80003 18.6C7.30003 18.3 7.90003 18.1 8.50003 18.2C9.60003 18.4 10.7 18.3 11.8 18C12.5 17.8 13.2 18 13.9 18.1C14.6 18.2 15.3 18.1 15.9 17.9C16.6 17.7 17.2 17.6 17.9 17.8C19.3 18.2 20.6 17.8 22 17.8C26.6 17.6 31.1 16.9 35.7 17.4C37.5 17.6 39.3 18.2 41.1 18.6C41.4 18.7 41.9 18.8 41.9 19.1C41.9 19.5 41.6 19.8 41.2 20C41 20.1 40.9 20.2 40.8 20.4C40.1 22 38.8 23.1 37.8 24.5C37.6 24.8 37.2 25.1 36.9 25.3C36.1 25.9 35.4 25.7 35.1 24.8C34.9 24.2 34.6 23.8 34.1 23.6C32.9 23 31.6 22.6 30.2 22.7C29.4 22.8 28.6 22.8 27.8 22.6C26.3 22.2 25 22.7 23.6 23.3C23.3 23.4 23.3 23.6 23.3 23.9C23.9 26.8 23.4 29.7 23.1 32.7C22.9 34.5 22.8 36.3 22.7 38.2L22.4 49.8C22.4 50.2 22.2 50.7 22.5 50.9C22.8 51.1 23.2 50.6 23.5 50.4C24.3 49.9 25 49.1 25.6 48.4C26.2 47.6 26.9 47 27.7 46.4C28.2 46 28.5 45.3 28.8 44.8C29.7 43.4 30.1 41.7 30.2 40.1C30.3 38.5 30.7 36.9 30.7 35.3C30.7 34 30.5 32.9 29.8 31.8C29.5 31.3 29.2 30.7 29 30.1C29 29.9 28.9 29.7 28.9 29.5C29 29.2 29 28.8 29.3 28.7C29.6 28.6 29.8 28.9 30 29.1C30.5 29.6 30.9 30.1 31.1 30.8C32.3 33.5 33.4 36.3 33.8 39.3C33.8 39.4 33.8 39.6 34 39.5C34.7 39.4 34.5 39.9 34.5 40.3C34.7 42.8 33.7 44.8 32 46.4C31.2 47.1 30.6 47.9 30.1 48.8C29.8 49.3 29.3 49.6 28.8 50C27.7 50.8 26.7 51.7 25.8 52.6C25.5 52.9 25.1 53.2 25 53.7C24.5 55.1 23.4 56.1 22.5 57.1C21.9 57.8 21.5 58.4 21.7 59.4C22 61.6 21.9 63.7 21.5 65.8C21.4 66.2 21.2 66.8 20.8 67.3ZM12 0C12.5 0.2 12.9 0.5 13.2 1C13.9 2.2 14.3 3.5 14.7 4.9C15.6 7.6 16.5 10.4 17.7 13C18 13.7 18.2 14.3 17.8 15C17.6 15.3 17.5 15.5 17 15.4C15.4 15.2 13.9 14.8 12.4 14.5C11.9 14.4 11.9 14.1 11.9 13.8C11.9 11.7 12 9.7 11.6 7.6L11 4.4C10.9 3.9 11 3.6 11.4 3.5C12 3.2 12.2 2.8 12.2 2.1C12.2 1.5 12.1 0.8 12 0Z" fill="white"/>
<path d="M5.80001 37.7C6.50001 37.7 6.80001 37.9 6.60001 38.7C6.50001 39.2 6.70001 39.5 7.10001 39.7C7.40001 39.9 7.50001 40.2 7.60001 40.5C7.70001 41.4 7.90001 42.3 8.10001 43.1C8.30001 44.2 8.60001 45.3 9.30001 46.2C9.90001 47.1 10.4 48 10.9 48.9C11.2 49.5 11.6 50 12.2 50.3C13.4 51 14 52.2 14.5 53.4C14.7 53.9 14.5 54.3 14.3 54.7L14 55C13.5 54.7 13.1 55.1 12.6 54.9C12.2 54.8 11.9 54.4 11.8 54C11.5 53 10.8 52.2 10.2 51.4C8.30001 48.9 6.40001 46.3 4.60001 43.7C3.30001 41.9 3.60001 39.3 5.00001 38C5.20001 37.9 5.40001 37.7 5.80001 37.7ZM20.2 72.2C19.5 71.3 19.3 70.2 19 69.2C18.9 68.9 19.8 68.1 20.3 68.1C20.8 68.1 20.9 68.5 20.9 68.9C20.9 69.8 20.8 70.6 20.7 71.5C20.6 71.8 20.4 72 20.2 72.2Z" fill="white"/>
</g>
<defs>
<clipPath id="clip0_2_53">
<rect width="41.9" height="72.2" fill="white"/>
</clipPath>
</defs>
</svg>
