<svg width="82" height="72" viewBox="0 0 82 72" fill="none" xmlns="http://www.w3.org/2000/svg">
<path d="M41.8424 4.06186C47.9262 4.27939 52.2973 6.83733 55.2081 9.73542C56.7338 11.2522 57.857 12.8639 58.587 14.2581C59.289 15.6226 59.5979 16.8091 59.6166 17.3331L56.7151 31.1462L47.7858 38.9971L44.9217 46.5612H37.0783L34.2142 38.9971L25.2849 31.1462L22.3834 17.3331C22.4021 16.8091 22.711 15.6226 23.413 14.2581C24.143 12.8639 25.2662 11.2522 26.7919 9.73542C29.7027 6.83733 34.0738 4.27939 40.1576 4.06186V16.5026H37.6586L34.7196 19.6073L25.0041 17.8967L26.7544 28.9907L35.8334 35.3881L37.462 39.264L44.5474 39.2245L46.1666 35.3881L55.2456 28.9907L56.8087 19.1228L56.9959 17.8967L47.2804 19.6073L44.3414 16.5026H41.8424V4.06186ZM60.7772 20.0325L62.6211 23.9282V33.3512L58.4373 31.1462L60.7772 20.0325ZM21.2228 20.0325L23.5627 31.1462L19.3789 33.3512V23.9282L21.2228 20.0325ZM57.5855 32.6887L61.7881 34.9036L47.2804 45.1175L49.1898 40.0847L57.5855 32.6887ZM24.4145 32.6887L32.8102 40.0847L34.7196 45.1175L20.2119 34.9036L24.4145 32.6887Z" fill="white"/>
<path d="M2.58564 69.125V58.625H12.4406V69.125H9.50064V60.32L10.1606 60.98H4.86564L5.51064 60.32V69.125H2.58564ZM14.8353 69.125V58.625H19.6353C20.5953 58.625 21.4203 58.78 22.1103 59.09C22.8103 59.4 23.3503 59.85 23.7303 60.44C24.1103 61.02 24.3003 61.71 24.3003 62.51C24.3003 63.3 24.1103 63.985 23.7303 64.565C23.3503 65.145 22.8103 65.595 22.1103 65.915C21.4203 66.225 20.5953 66.38 19.6353 66.38H16.4853L17.8053 65.09V69.125H14.8353ZM17.8053 65.405L16.4853 64.04H19.4553C20.0753 64.04 20.5353 63.905 20.8353 63.635C21.1453 63.365 21.3003 62.99 21.3003 62.51C21.3003 62.02 21.1453 61.64 20.8353 61.37C20.5353 61.1 20.0753 60.965 19.4553 60.965H16.4853L17.8053 59.6V65.405ZM31.1023 69.335C30.2623 69.335 29.4873 69.2 28.7773 68.93C28.0673 68.66 27.4473 68.28 26.9173 67.79C26.3973 67.29 25.9923 66.71 25.7023 66.05C25.4123 65.39 25.2673 64.665 25.2673 63.875C25.2673 63.085 25.4123 62.36 25.7023 61.7C25.9923 61.04 26.3973 60.465 26.9173 59.975C27.4473 59.475 28.0673 59.09 28.7773 58.82C29.4873 58.55 30.2623 58.415 31.1023 58.415C31.9523 58.415 32.7273 58.55 33.4273 58.82C34.1373 59.09 34.7523 59.475 35.2723 59.975C35.7923 60.465 36.1973 61.04 36.4873 61.7C36.7873 62.36 36.9373 63.085 36.9373 63.875C36.9373 64.665 36.7873 65.395 36.4873 66.065C36.1973 66.725 35.7923 67.3 35.2723 67.79C34.7523 68.28 34.1373 68.66 33.4273 68.93C32.7273 69.2 31.9523 69.335 31.1023 69.335ZM31.1023 66.875C31.5023 66.875 31.8723 66.805 32.2123 66.665C32.5623 66.525 32.8623 66.325 33.1123 66.065C33.3723 65.795 33.5723 65.475 33.7123 65.105C33.8623 64.735 33.9373 64.325 33.9373 63.875C33.9373 63.415 33.8623 63.005 33.7123 62.645C33.5723 62.275 33.3723 61.96 33.1123 61.7C32.8623 61.43 32.5623 61.225 32.2123 61.085C31.8723 60.945 31.5023 60.875 31.1023 60.875C30.7023 60.875 30.3273 60.945 29.9773 61.085C29.6373 61.225 29.3373 61.43 29.0773 61.7C28.8273 61.96 28.6273 62.275 28.4773 62.645C28.3373 63.005 28.2673 63.415 28.2673 63.875C28.2673 64.325 28.3373 64.735 28.4773 65.105C28.6273 65.475 28.8273 65.795 29.0773 66.065C29.3373 66.325 29.6373 66.525 29.9773 66.665C30.3273 66.805 30.7023 66.875 31.1023 66.875ZM44.4503 68.495C43.0503 68.495 41.8653 68.315 40.8953 67.955C39.9353 67.595 39.2053 67.07 38.7053 66.38C38.2153 65.68 37.9703 64.835 37.9703 63.845C37.9703 62.845 38.2153 62 38.7053 61.31C39.2053 60.61 39.9403 60.08 40.9103 59.72C41.8803 59.36 43.0653 59.18 44.4653 59.18C44.4853 59.18 44.5503 59.18 44.6603 59.18C44.7803 59.18 44.9003 59.18 45.0203 59.18C45.1403 59.18 45.2053 59.18 45.2153 59.18C46.6053 59.18 47.7703 59.365 48.7103 59.735C49.6603 60.095 50.3803 60.625 50.8703 61.325C51.3603 62.015 51.6053 62.855 51.6053 63.845C51.6053 64.825 51.3653 65.665 50.8853 66.365C50.4153 67.055 49.7153 67.585 48.7853 67.955C47.8553 68.315 46.7103 68.495 45.3503 68.495C45.3303 68.495 45.2503 68.495 45.1103 68.495C44.9703 68.495 44.8353 68.495 44.7053 68.495C44.5753 68.495 44.4903 68.495 44.4503 68.495ZM44.7203 66.215C44.7503 66.215 44.7953 66.215 44.8553 66.215C44.9253 66.215 44.9753 66.215 45.0053 66.215C45.8653 66.215 46.5703 66.13 47.1203 65.96C47.6703 65.79 48.0753 65.53 48.3353 65.18C48.5953 64.83 48.7253 64.38 48.7253 63.83C48.7253 63.27 48.5903 62.82 48.3203 62.48C48.0503 62.14 47.6453 61.89 47.1053 61.73C46.5653 61.56 45.8753 61.475 45.0353 61.475C45.0053 61.475 44.9553 61.475 44.8853 61.475C44.8253 61.475 44.7703 61.475 44.7203 61.475C43.8203 61.475 43.0853 61.555 42.5153 61.715C41.9453 61.875 41.5253 62.13 41.2553 62.48C40.9853 62.82 40.8503 63.275 40.8503 63.845C40.8503 64.405 40.9953 64.86 41.2853 65.21C41.5853 65.56 42.0203 65.815 42.5903 65.975C43.1703 66.135 43.8803 66.215 44.7203 66.215ZM43.4303 69.62V58.13H46.1453V69.62H43.4303ZM53.2979 69.125V58.625H56.2229V69.125H53.2979ZM59.0246 69.305C58.8246 69.305 58.6096 69.29 58.3796 69.26C58.1596 69.23 57.9246 69.185 57.6746 69.125L57.8396 66.695C57.9796 66.725 58.1146 66.74 58.2446 66.74C58.6546 66.74 58.9646 66.58 59.1746 66.26C59.3846 65.93 59.5296 65.47 59.6096 64.88C59.6996 64.29 59.7546 63.6 59.7746 62.81L59.9246 58.625H68.3846V69.125H65.4596V60.32L66.1046 60.98H61.8596L62.4596 60.29L62.3846 62.69C62.3546 63.71 62.2846 64.63 62.1746 65.45C62.0646 66.26 61.8896 66.955 61.6496 67.535C61.4096 68.105 61.0746 68.545 60.6446 68.855C60.2246 69.155 59.6846 69.305 59.0246 69.305ZM76.1356 61.97C77.4156 61.97 78.4056 62.255 79.1056 62.825C79.8156 63.395 80.1706 64.25 80.1706 65.39C80.1706 66.62 79.7756 67.55 78.9856 68.18C78.1956 68.81 77.1156 69.125 75.7456 69.125H70.7806V58.625H73.7056V61.97H76.1356ZM75.5506 66.995C76.0506 66.995 76.4456 66.86 76.7356 66.59C77.0356 66.32 77.1856 65.94 77.1856 65.45C77.1856 64.95 77.0356 64.6 76.7356 64.4C76.4456 64.19 76.0506 64.085 75.5506 64.085H73.7056V66.995H75.5506Z" fill="white"/>
</svg>
