<svg width="50" height="50" viewBox="0 0 50 50" fill="none" xmlns="http://www.w3.org/2000/svg">
<rect width="50" height="50" rx="15" fill="#66CC33"/>
<path d="M18.2316 17.72C19.5516 17.72 20.6916 17.98 21.6516 18.5C22.625 19.02 23.3783 19.7933 23.9116 20.82C24.4583 21.8333 24.7316 23.1 24.7316 24.62C24.7316 26.2467 24.4116 27.6333 23.7716 28.78C23.145 29.9133 22.2716 30.78 21.1516 31.38C20.045 31.98 18.7516 32.28 17.2716 32.28C16.4983 32.28 15.7516 32.1867 15.0316 32C14.3116 31.8267 13.6916 31.58 13.1716 31.26L14.6116 28.42C15.0116 28.7 15.425 28.8933 15.8516 29C16.2916 29.0933 16.7383 29.14 17.1916 29.14C18.2716 29.14 19.1316 28.8133 19.7716 28.16C20.4116 27.5067 20.7316 26.5533 20.7316 25.3C20.7316 25.0733 20.7316 24.84 20.7316 24.6C20.7316 24.3467 20.7116 24.0933 20.6716 23.84L21.6516 24.66C21.4116 25.1533 21.0983 25.5667 20.7116 25.9C20.325 26.2333 19.8716 26.4867 19.3516 26.66C18.8316 26.8333 18.2383 26.92 17.5716 26.92C16.6916 26.92 15.885 26.74 15.1516 26.38C14.4316 26.0067 13.8516 25.4933 13.4116 24.84C12.9716 24.1733 12.7516 23.3933 12.7516 22.5C12.7516 21.5267 12.9983 20.6867 13.4916 19.98C13.985 19.26 14.645 18.7067 15.4716 18.32C16.2983 17.92 17.2183 17.72 18.2316 17.72ZM18.4916 20.54C18.1183 20.54 17.7916 20.6133 17.5116 20.76C17.2316 20.9067 17.005 21.1133 16.8316 21.38C16.6716 21.6333 16.5916 21.9467 16.5916 22.32C16.5916 22.8533 16.765 23.28 17.1116 23.6C17.4716 23.92 17.9383 24.08 18.5116 24.08C18.8983 24.08 19.2383 24.0067 19.5316 23.86C19.825 23.7133 20.0516 23.5067 20.2116 23.24C20.3716 22.9733 20.4516 22.66 20.4516 22.3C20.4516 21.9533 20.3716 21.6533 20.2116 21.4C20.0516 21.1333 19.825 20.9267 19.5316 20.78C19.2383 20.62 18.8916 20.54 18.4916 20.54ZM30.9999 32.28C30.0399 32.28 29.0733 32.16 28.0999 31.92C27.1266 31.68 26.2866 31.34 25.5799 30.9L26.9999 27.92C27.5733 28.2933 28.1933 28.58 28.8599 28.78C29.5399 28.98 30.2133 29.08 30.8799 29.08C31.5466 29.08 32.0866 28.9533 32.4999 28.7C32.9133 28.4333 33.1199 28.0667 33.1199 27.6C33.1199 27.32 33.0399 27.0733 32.8799 26.86C32.7199 26.6333 32.4466 26.4667 32.0599 26.36C31.6733 26.24 31.1199 26.18 30.3999 26.18H26.5999L27.2999 18H36.2199V21.06H28.6999L30.7199 19.32L30.2599 24.84L28.2399 23.1H31.3399C32.7266 23.1 33.8399 23.3 34.6799 23.7C35.5199 24.0867 36.1333 24.6133 36.5199 25.28C36.9066 25.9333 37.0999 26.6733 37.0999 27.5C37.0999 28.3267 36.8799 29.1067 36.4399 29.84C36.0133 30.56 35.3533 31.1467 34.4599 31.6C33.5666 32.0533 32.4133 32.28 30.9999 32.28Z" fill="white"/>
</svg>
