<svg width="100" height="100" viewBox="0 0 100 100" fill="none" xmlns="http://www.w3.org/2000/svg">
<rect width="100" height="100" rx="15" fill="#66CC33"/>
<path d="M34.5925 66.644C31.8018 66.644 29.3638 66.23 27.2785 65.402C25.1932 64.574 23.5525 63.4087 22.3565 61.906C21.1912 60.3727 20.6085 58.5787 20.6085 56.524C20.6085 54.5 21.1912 52.7827 22.3565 51.372C23.5525 49.9307 25.1932 48.842 27.2785 48.106C29.3945 47.3393 31.8325 46.956 34.5925 46.956C37.3525 46.956 39.7752 47.3393 41.8605 48.106C43.9765 48.842 45.6172 49.9307 46.7825 51.372C47.9785 52.7827 48.5765 54.5 48.5765 56.524C48.5765 58.5787 47.9938 60.3727 46.8285 61.906C45.6632 63.4087 44.0225 64.574 41.9065 65.402C39.8212 66.23 37.3832 66.644 34.5925 66.644ZM34.5925 60.25C36.0645 60.25 37.2299 59.8973 38.0885 59.192C38.9778 58.4867 39.4225 57.5053 39.4225 56.248C39.4225 55.0213 38.9778 54.0553 38.0885 53.35C37.2299 52.614 36.0645 52.246 34.5925 52.246C33.1205 52.246 31.9398 52.614 31.0505 53.35C30.1918 54.0553 29.7625 55.0213 29.7625 56.248C29.7625 57.5053 30.1918 58.4867 31.0505 59.192C31.9398 59.8973 33.1205 60.25 34.5925 60.25ZM34.5925 51.464C32.0778 51.464 29.8545 51.1113 27.9225 50.406C26.0212 49.7007 24.5185 48.6887 23.4145 47.37C22.3105 46.0207 21.7585 44.4107 21.7585 42.54C21.7585 40.608 22.2952 38.952 23.3685 37.572C24.4725 36.192 25.9905 35.1187 27.9225 34.352C29.8545 33.5547 32.0778 33.156 34.5925 33.156C37.1379 33.156 39.3612 33.5547 41.2625 34.352C43.1945 35.1187 44.6972 36.192 45.7705 37.572C46.8745 38.952 47.4265 40.608 47.4265 42.54C47.4265 44.4107 46.8745 46.0207 45.7705 47.37C44.6972 48.6887 43.1945 49.7007 41.2625 50.406C39.3305 51.1113 37.1072 51.464 34.5925 51.464ZM34.5925 46.312C35.7578 46.312 36.6932 46.0207 37.3985 45.438C38.1038 44.8247 38.4565 43.9967 38.4565 42.954C38.4565 41.85 38.0885 41.0067 37.3525 40.424C36.6472 39.8413 35.7272 39.55 34.5925 39.55C33.4578 39.55 32.5378 39.8413 31.8325 40.424C31.1272 41.0067 30.7745 41.85 30.7745 42.954C30.7745 43.9967 31.1272 44.8247 31.8325 45.438C32.5378 46.0207 33.4578 46.312 34.5925 46.312ZM65.364 66.644C62.5733 66.644 60.1353 66.23 58.05 65.402C55.9647 64.574 54.324 63.4087 53.128 61.906C51.9627 60.3727 51.38 58.5787 51.38 56.524C51.38 54.5 51.9627 52.7827 53.128 51.372C54.324 49.9307 55.9647 48.842 58.05 48.106C60.166 47.3393 62.604 46.956 65.364 46.956C68.124 46.956 70.5467 47.3393 72.632 48.106C74.748 48.842 76.3887 49.9307 77.554 51.372C78.75 52.7827 79.348 54.5 79.348 56.524C79.348 58.5787 78.7653 60.3727 77.6 61.906C76.4347 63.4087 74.794 64.574 72.678 65.402C70.5927 66.23 68.1547 66.644 65.364 66.644ZM65.364 60.25C66.836 60.25 68.0013 59.8973 68.86 59.192C69.7493 58.4867 70.194 57.5053 70.194 56.248C70.194 55.0213 69.7493 54.0553 68.86 53.35C68.0013 52.614 66.836 52.246 65.364 52.246C63.892 52.246 62.7113 52.614 61.822 53.35C60.9633 54.0553 60.534 55.0213 60.534 56.248C60.534 57.5053 60.9633 58.4867 61.822 59.192C62.7113 59.8973 63.892 60.25 65.364 60.25ZM65.364 51.464C62.8493 51.464 60.626 51.1113 58.694 50.406C56.7927 49.7007 55.29 48.6887 54.186 47.37C53.082 46.0207 52.53 44.4107 52.53 42.54C52.53 40.608 53.0667 38.952 54.14 37.572C55.244 36.192 56.762 35.1187 58.694 34.352C60.626 33.5547 62.8493 33.156 65.364 33.156C67.9093 33.156 70.1327 33.5547 72.034 34.352C73.966 35.1187 75.4687 36.192 76.542 37.572C77.646 38.952 78.198 40.608 78.198 42.54C78.198 44.4107 77.646 46.0207 76.542 47.37C75.4687 48.6887 73.966 49.7007 72.034 50.406C70.102 51.1113 67.8787 51.464 65.364 51.464ZM65.364 46.312C66.5293 46.312 67.4647 46.0207 68.17 45.438C68.8753 44.8247 69.228 43.9967 69.228 42.954C69.228 41.85 68.86 41.0067 68.124 40.424C67.4187 39.8413 66.4987 39.55 65.364 39.55C64.2293 39.55 63.3093 39.8413 62.604 40.424C61.8987 41.0067 61.546 41.85 61.546 42.954C61.546 43.9967 61.8987 44.8247 62.604 45.438C63.3093 46.0207 64.2293 46.312 65.364 46.312Z" fill="white"/>
</svg>
